<svg width="130" height="130" viewBox="0 0 130 130" fill="none" xmlns="http://www.w3.org/2000/svg">
<rect width="130" height="130" stroke="black"/>
<path fill-rule="evenodd" clip-rule="evenodd" d="M115.375 34.125L104 79.625H42.25L30.875 34.125H115.375Z" fill="#055A76" fill-opacity="0.81"/>
<path d="M104 79.625V82.875C104.724 82.8749 105.428 82.6325 105.999 82.1865C106.571 81.7404 106.976 81.1162 107.152 80.4131L104 79.625ZM115.375 34.125L118.527 34.9131C118.647 34.434 118.656 33.9339 118.553 33.4508C118.451 32.9677 118.24 32.5143 117.936 32.1251C117.632 31.7358 117.243 31.4209 116.799 31.2043C116.356 30.9877 115.868 30.8751 115.375 30.875V34.125ZM42.2495 79.625L39.097 80.4131C39.2728 81.1162 39.6785 81.7404 40.2497 82.1865C40.8209 82.6325 41.5248 82.8749 42.2495 82.875V79.625ZM30.8745 34.125V30.875C30.3807 30.8751 29.8933 30.9877 29.4495 31.2043C29.0057 31.4209 28.6171 31.7358 28.3132 32.1251C28.0093 32.5143 27.7981 32.9677 27.6957 33.4508C27.5933 33.9339 27.6023 34.434 27.722 34.9131L30.8745 34.125ZM107.152 80.4131L118.527 34.9131L112.222 33.3369L100.847 78.8369L107.152 80.4131ZM42.2495 82.875H104V76.375H42.2495V82.875ZM27.722 34.9131L39.097 80.4131L45.402 78.8369L34.027 33.3369L27.722 34.9131ZM115.375 30.875H30.8745V37.375H115.375V30.875Z" fill="#055A76" fill-opacity="0.81"/>
<path d="M43.8913 99.593C44.1003 100.429 44.633 101.148 45.3721 101.592C46.1113 102.035 46.9964 102.167 47.8327 101.958C48.669 101.749 49.388 101.216 49.8316 100.477C50.2751 99.7382 50.4069 98.8531 50.1979 98.0168L43.8913 99.593ZM27.625 21.125L30.7775 20.3369C30.6018 19.6338 30.196 19.0096 29.6248 18.5635C29.0536 18.1175 28.3497 17.8751 27.625 17.875V21.125ZM14.625 17.875C13.763 17.875 12.9364 18.2174 12.3269 18.8269C11.7174 19.4364 11.375 20.263 11.375 21.125C11.375 21.987 11.7174 22.8136 12.3269 23.4231C12.9364 24.0326 13.763 24.375 14.625 24.375V17.875ZM49.4309 95.875C48.5689 95.875 47.7423 96.2174 47.1328 96.8269C46.5233 97.4364 46.1809 98.263 46.1809 99.125C46.1809 99.987 46.5233 100.814 47.1328 101.423C47.7423 102.033 48.5689 102.375 49.4309 102.375V95.875ZM98.4441 102.375C99.3061 102.375 100.133 102.033 100.742 101.423C101.352 100.814 101.694 99.987 101.694 99.125C101.694 98.263 101.352 97.4364 100.742 96.8269C100.133 96.2174 99.3061 95.875 98.4441 95.875V102.375ZM50.1979 98.0168L30.7775 20.3369L24.4725 21.9131L43.8913 99.593L50.1979 98.0168ZM27.625 17.875H14.625V24.375H27.625V17.875ZM49.4309 102.375H98.4441V95.875H49.4309V102.375Z" fill="#8B54BE"/>
<path d="M42.9016 99.9359C43.8619 99.3815 44.922 99.0216 46.0214 98.8769C47.1207 98.7322 48.2378 98.8054 49.3089 99.0924C50.3799 99.3794 51.384 99.8746 52.2637 100.55C53.1434 101.225 53.8815 102.066 54.4359 103.027C54.9903 103.987 55.3501 105.047 55.4949 106.146C55.6396 107.246 55.5663 108.363 55.2793 109.434C54.9923 110.505 54.4972 111.509 53.8222 112.389C53.1471 113.268 52.3054 114.006 51.3451 114.561C49.4057 115.681 47.101 115.984 44.9379 115.404C42.7748 114.825 40.9306 113.41 39.8109 111.47C38.6912 109.531 38.3878 107.226 38.9674 105.063C39.5471 102.9 40.9623 101.056 42.9016 99.9359ZM96.5266 99.9359C97.4869 99.3815 98.547 99.0216 99.6464 98.8769C100.746 98.7322 101.863 98.8054 102.934 99.0924C104.005 99.3794 105.009 99.8746 105.889 100.55C106.768 101.225 107.506 102.066 108.061 103.027C108.615 103.987 108.975 105.047 109.12 106.146C109.265 107.246 109.191 108.363 108.904 109.434C108.617 110.505 108.122 111.509 107.447 112.389C106.772 113.268 105.93 114.006 104.97 114.561C103.031 115.681 100.726 115.984 98.5629 115.404C96.3998 114.825 94.5556 113.41 93.4359 111.47C92.3162 109.531 92.0128 107.226 92.5925 105.063C93.1721 102.9 94.5873 101.056 96.5266 99.9359Z" fill="#0E3871" fill-opacity="0.9" stroke="#0E3871" stroke-opacity="0.9" stroke-linecap="round" stroke-linejoin="round"/>
</svg>
